<svg width="40" height="46" viewBox="0 0 40 46" fill="none" xmlns="http://www.w3.org/2000/svg">
<g filter="url(#filter0_d_5_241)">
<path d="M31.3285 41.3952C29.1316 43.506 26.733 43.1727 24.4241 42.1728C21.9806 41.1507 19.7389 41.1063 17.161 42.1728C13.9329 43.5504 12.2292 43.1505 10.3014 41.3952C-0.638101 30.2188 0.975923 13.1987 13.3949 12.5766C16.4212 12.7321 18.5284 14.2208 20.2994 14.3541C22.9446 13.8209 25.4777 12.2877 28.3022 12.4877C31.6872 12.7543 34.2427 14.0875 35.924 16.4872C28.9299 20.6422 30.5887 29.7744 37 32.3296C35.7222 35.6625 34.0634 38.9732 31.3061 41.4174L31.3285 41.3952ZM20.0752 12.4433C19.7389 7.48832 23.7964 3.39995 28.4591 3C29.1092 8.73261 23.2136 12.9987 20.0752 12.4433Z" fill="white"/>
</g>
<defs>
<filter id="filter0_d_5_241" x="0.274074" y="0.274074" width="39.4519" height="45.4519" filterUnits="userSpaceOnUse" color-interpolation-filters="sRGB">
<feFlood flood-opacity="0" result="BackgroundImageFix"/>
<feColorMatrix in="SourceAlpha" type="matrix" values="0 0 0 0 0 0 0 0 0 0 0 0 0 0 0 0 0 0 127 0" result="hardAlpha"/>
<feOffset/>
<feGaussianBlur stdDeviation="1.36296"/>
<feComposite in2="hardAlpha" operator="out"/>
<feColorMatrix type="matrix" values="0 0 0 0 1 0 0 0 0 1 0 0 0 0 1 0 0 0 0.15 0"/>
<feBlend mode="normal" in2="BackgroundImageFix" result="effect1_dropShadow_5_241"/>
<feBlend mode="normal" in="SourceGraphic" in2="effect1_dropShadow_5_241" result="shape"/>
</filter>
</defs>
</svg>
