<svg width="24" height="24" viewBox="0 0 24 24" fill="none" xmlns="http://www.w3.org/2000/svg">
<path d="M3.38442 12.2108C3.38442 12.8171 2.89974 13.3022 2.29388 13.3022C1.68803 13.3022 1.20334 12.8171 1.20334 12.2108C1.20334 11.6044 1.68803 11.1193 2.29388 11.1193H3.38442V12.2108ZM4.59613 7.72365H3.38442V9.93082H2.29388C1.0337 9.93082 0.0158691 10.9495 0.0158691 12.2108C0.0158691 13.472 1.0337 14.4907 2.29388 14.4907C3.55406 14.4907 4.5719 13.472 4.5719 12.2108V9.93082L4.59613 7.72365Z" fill="white"/>
<path d="M16.6408 13.3021C17.2467 13.3021 17.7313 12.817 17.7313 12.2107C17.7313 11.6043 17.2467 11.1192 16.6408 11.1192C16.0349 11.1192 15.5503 11.6043 15.5503 12.2107C15.5745 12.817 16.0592 13.3021 16.6408 13.3021ZM14.387 12.2107C14.387 10.9494 15.4049 9.93074 16.665 9.93074C17.9252 9.93074 18.9431 10.9494 18.9431 12.2107C18.9431 13.4719 17.9252 14.4906 16.665 14.4906C15.4049 14.4906 14.387 13.4719 14.387 12.2107Z" fill="white"/>
<path d="M22.748 12.2107C22.748 11.6286 22.2633 11.1435 21.6817 11.1435C21.1 11.1435 20.6154 11.6286 20.6154 12.2107V14.3936H19.4279V12.2107C19.4279 10.9494 20.4457 9.93074 21.7059 9.93074C22.9661 9.93074 23.9839 10.9494 23.9839 12.2107V14.3936H22.7964C22.748 14.3936 22.748 12.5017 22.748 12.2107Z" fill="white"/>
<path d="M11.6007 11.4345C11.431 11.3132 11.4795 11.1192 11.7703 11.0464C12.1338 10.9494 12.7639 11.0222 13.2971 11.2647L13.8545 10.4886C13.6121 10.2945 13.079 10.0277 12.3035 9.97923C12.3035 9.97923 10.9948 9.80945 10.4617 10.8039C10.4617 10.8039 10.0012 11.7256 10.9221 12.3077C11.4795 12.6472 12.4489 12.7928 12.7639 12.9383C13.0063 13.0838 12.9336 13.3506 12.57 13.4234C11.94 13.5689 11.116 13.2051 10.8494 13.0111L10.2678 13.8115C10.6555 14.1025 11.1402 14.3693 11.9157 14.4906C11.9157 14.4906 13.1517 14.7089 13.8302 13.86C13.9514 13.7144 14.5088 12.6715 13.394 12.0651C12.8124 11.7498 11.8915 11.6043 11.6007 11.4345Z" fill="white"/>
<path d="M6.02666 15.2668C6.07513 15.2911 6.63251 15.6792 7.16566 15.6792C8.47431 15.7034 8.54701 14.3452 8.54701 14.0298C8.30467 14.2967 7.79575 14.4664 7.48071 14.4664C6.22053 14.4664 5.22693 13.4962 5.22693 12.235V10.0278H6.4144V12.235C6.4144 12.8171 6.89909 13.3022 7.48071 13.3022C8.06233 13.3022 8.54701 12.8171 8.54701 12.235V10.0278H9.73449V12.235C9.73449 14.1996 9.83142 16.2128 7.91692 16.6736C6.48711 17.0132 5.46927 16.1158 5.39657 16.0672L6.02666 15.2668Z" fill="white"/>
</svg>
