<svg width="24" height="4" viewBox="0 0 24 4" fill="none" xmlns="http://www.w3.org/2000/svg">
<path d="M8.55 0C9.471 0 10.208 0.217804 10.771 0.702652C11.156 1.03314 11.371 1.50379 11.365 1.99716C11.3641 2.24066 11.3109 2.48145 11.2088 2.70494C11.1067 2.92843 10.9578 3.12997 10.771 3.29735C10.244 3.75568 9.423 4 8.551 4C7.679 4 6.871 3.75568 6.336 3.29735C6.1427 3.13441 5.98877 2.93392 5.88471 2.70955C5.78065 2.48517 5.72891 2.24219 5.733 1.99716C5.733 1.50663 5.951 1.03599 6.336 0.702652C6.836 0.272728 7.72 0 8.55 0ZM8.553 3.47538C9.014 3.47538 9.441 3.32292 9.741 3.04167C10.041 2.75758 10.174 2.41667 10.174 1.99716C10.174 1.59564 10.026 1.2197 9.741 0.952652C9.447 0.678031 9.008 0.522727 8.553 0.522727C8.098 0.522727 7.66 0.677084 7.363 0.952652C7.078 1.2197 6.929 1.59564 6.929 1.99716C6.92291 2.38584 7.07885 2.76113 7.363 3.04167C7.66 3.32008 8.096 3.47538 8.553 3.47538ZM3.712 1.61174C3.872 1.65025 4.02734 1.7017 4.178 1.7661C4.31765 1.82726 4.4457 1.90981 4.557 2.01042C4.754 2.20549 4.866 2.46686 4.863 2.73674C4.86515 2.87907 4.83197 3.01988 4.76614 3.14785C4.70031 3.27581 4.60367 3.38735 4.484 3.47348C4.27188 3.62514 4.03129 3.73729 3.775 3.80398C3.38898 3.91912 2.98562 3.9735 2.581 3.96496C2.229 3.96496 2.035 3.92614 1.768 3.87311L1.691 3.85795C1.39675 3.79645 1.10943 3.70829 0.833002 3.5947C0.820641 3.58676 0.805924 3.58278 0.791002 3.58333C0.769073 3.58383 0.748217 3.59243 0.732894 3.60729C0.717571 3.62215 0.708996 3.64211 0.709002 3.66288V3.85511H0.121002V2.45549H0.645002C0.648467 2.59734 0.69613 2.73505 0.782002 2.85133C0.994002 3.09754 1.222 3.19223 1.439 3.26799C1.806 3.38163 2.191 3.44223 2.575 3.4536C3.128 3.4536 3.451 3.3267 3.521 3.29924L3.53 3.29545L3.536 3.29356C3.598 3.27178 3.848 3.18561 3.848 2.92235C3.848 2.66288 3.614 2.60606 3.461 2.56913L3.439 2.56439C3.269 2.52083 2.877 2.48106 2.449 2.43845L2.297 2.4233C1.89567 2.38441 1.49629 2.32912 1.1 2.25758C0.602003 2.15341 0.406002 1.98106 0.284002 1.87405L0.276002 1.86648C0.0981552 1.6869 -0.000568722 1.44979 2.46475e-06 1.2036C2.46475e-06 0.733902 0.340002 0.449811 0.758002 0.275568C1.21273 0.0917336 1.70258 -0.00142658 2.197 0.0018947C3.017 0.00473561 3.684 0.257577 3.924 0.375001C4.021 0.424243 4.069 0.363637 4.069 0.318182V0.177084H4.596V1.39678H4.124C4.08203 1.21563 3.97881 1.05239 3.83 0.931818C3.73944 0.863009 3.63955 0.806 3.533 0.762311C3.13748 0.603742 2.71147 0.524736 2.282 0.530303C1.839 0.530303 1.415 0.610796 1.202 0.733902C1.06934 0.812185 1.00267 0.908775 1.002 1.02367C1.002 1.1875 1.148 1.25284 1.222 1.27273C1.418 1.32955 1.854 1.37027 2.193 1.40246L2.397 1.42235C2.724 1.4536 3.409 1.53977 3.712 1.61174ZM21.879 0.667614V0.214016H24V0.659091H23.524C23.352 0.659091 23.282 0.690341 23.152 0.828598L21.725 2.37216C21.7101 2.39122 21.7034 2.41488 21.706 2.43845V3.1411C21.7082 3.17379 21.7122 3.20634 21.718 3.23864C21.7265 3.25923 21.74 3.27767 21.7573 3.29246C21.7747 3.30726 21.7955 3.31801 21.818 3.32386C21.8611 3.32969 21.9045 3.33286 21.948 3.33333H22.434V3.77841H19.86V3.33333H20.32C20.3635 3.33286 20.4069 3.32969 20.45 3.32386C20.4729 3.31787 20.4942 3.30712 20.5122 3.29237C20.5302 3.27763 20.5444 3.25927 20.554 3.23864C20.5587 3.20723 20.5617 3.17563 20.563 3.14394V2.44129C20.563 2.41761 20.563 2.41761 20.53 2.38068L19.119 0.863637C19.043 0.788826 18.913 0.668561 18.713 0.668561H18.255V0.223485H20.843V0.668561H20.531C20.461 0.668561 20.413 0.734849 20.473 0.806818L21.352 1.80208C21.361 1.81345 21.367 1.81345 21.379 1.80492C21.391 1.7964 22.273 0.815341 22.279 0.806818C22.2864 0.797808 22.2918 0.787482 22.2949 0.776451C22.298 0.76542 22.2988 0.753909 22.2971 0.742603C22.2954 0.731297 22.2914 0.720426 22.2852 0.710635C22.279 0.700844 22.2707 0.692333 22.261 0.685607C22.2434 0.673987 22.2224 0.668011 22.201 0.668561L21.879 0.667614ZM15.595 0.664773H16.08C16.301 0.664773 16.34 0.745265 16.343 0.940341L16.371 2.4233L13.789 0.222538H11.944V0.667614H12.356C12.653 0.667614 12.674 0.822917 12.674 0.961174V3.05682C12.674 3.17803 12.675 3.33617 12.492 3.33617H11.986V3.77841H14.15V3.33333H13.622C13.41 3.33333 13.402 3.24148 13.398 3.0464V1.2642L16.371 3.77462H17.128L17.088 0.9375C17.092 0.731061 17.107 0.661932 17.331 0.661932H17.804V0.216856H15.595V0.664773Z" fill="white"/>
</svg>
