<svg width="16" height="16" viewBox="0 0 16 16" fill="none" xmlns="http://www.w3.org/2000/svg">
<path d="M8 5.788C10.3256 8.1448 11.9648 10.908 13.3344 13.9616C11.8691 15.2766 9.96887 16.0027 8 16C6.03114 16.0027 4.13094 15.2766 2.66561 13.9616C4.03521 10.908 5.67361 8.1448 8 5.788ZM2.80721 1.91441C4.24707 2.68992 5.59732 3.62138 6.8336 4.692C4.52481 7.0392 2.86561 9.7432 1.50001 12.6648C0.522144 11.3062 -0.00271106 9.67394 1.05311e-05 8C-0.00116313 6.84278 0.249289 5.69914 0.734014 4.64833C1.21874 3.59752 1.92614 2.66466 2.80721 1.91441ZM13.1928 1.91441C14.0739 2.66466 14.7813 3.59752 15.266 4.64833C15.7507 5.69914 16.0012 6.84278 16 8C16 9.7408 15.444 11.352 14.5 12.664C13.1344 9.7432 11.4752 7.04 9.1664 4.692C10.4027 3.6214 11.7529 2.68994 13.1928 1.91441ZM8 8.69552e-06C9.34 8.69552e-06 10.6032 0.329608 11.7128 0.912008C10.3914 1.68098 9.14796 2.57666 8 3.58641C6.85204 2.57667 5.60859 1.68099 4.28721 0.912008C5.43242 0.311113 6.70672 -0.00190205 8 8.69552e-06Z" fill="white"/>
</svg>
