<svg width="14" height="9" viewBox="0 0 14 9" fill="none" xmlns="http://www.w3.org/2000/svg">
<path d="M11.6438 8.74959C11.5943 8.74927 11.547 8.73071 11.5121 8.69794C11.4771 8.66517 11.4573 8.62081 11.457 8.57446V0.17517C11.4573 0.128822 11.4771 0.0844635 11.5121 0.0516898C11.547 0.0189161 11.5943 0.000361407 11.6438 3.91621e-05H13.8084C13.8333 -0.000450954 13.858 0.00371081 13.8812 0.0122821C13.9044 0.0208534 13.9255 0.0336626 13.9433 0.0499631C13.9612 0.0662636 13.9754 0.0857294 13.9851 0.107226C13.9948 0.128722 13.9999 0.151819 14 0.17517V8.57446C14 8.67289 13.9134 8.75164 13.8084 8.74959H11.6438ZM8.01406 8.74959C8.01406 8.74959 7.84082 8.70037 7.84082 8.57446V3.41775C7.84614 3.25697 7.81673 3.09683 7.75437 2.94697C7.692 2.79711 7.59797 2.66062 7.47792 2.54569C7.35786 2.43076 7.21427 2.33978 7.05576 2.27819C6.89725 2.21661 6.7271 2.1857 6.55553 2.18732H2.50891C2.27442 2.18732 2.33348 2.35179 2.33348 2.35179V8.57446C2.33348 8.7217 2.15805 8.74959 2.15805 8.74959H0.191613C0.166711 8.75008 0.141954 8.74592 0.118786 8.73735C0.0956171 8.72878 0.0744999 8.71597 0.0566653 8.69967C0.0388307 8.68337 0.0246353 8.6639 0.0149066 8.6424C0.00517796 8.62091 0.000110631 8.59781 0 8.57446V0.17517C0 0.0767357 0.0866196 -0.00201155 0.191613 3.91621e-05H7.69471C8.35266 0.00468186 8.98209 0.252511 9.44627 0.689696C9.91046 1.12688 10.1719 1.71811 10.1739 2.33498L10.1782 8.57487C10.1783 8.59788 10.1735 8.62068 10.1641 8.64195C10.1548 8.66323 10.141 8.68255 10.1237 8.69883C10.1063 8.7151 10.0857 8.728 10.063 8.73678C10.0403 8.74556 10.016 8.75005 9.99144 8.75L8.01406 8.74959ZM3.99019 8.74959C3.94366 8.74959 3.89904 8.73226 3.86614 8.70142C3.83324 8.67058 3.81476 8.62874 3.81476 8.58512V3.66342C3.81476 3.5736 3.89438 3.49896 3.99019 3.49896H6.18893C6.28473 3.50306 6.35735 3.57606 6.35735 3.66342V8.58512C6.35758 8.60661 6.35328 8.62793 6.34468 8.64784C6.33608 8.66776 6.32337 8.68589 6.30726 8.70118C6.29116 8.71646 6.27198 8.72861 6.25085 8.73692C6.22971 8.74523 6.20703 8.74954 6.18411 8.74959H3.99019Z" fill="white"/>
</svg>
