<svg width="26" height="23" viewBox="0 0 26 23" fill="none" xmlns="http://www.w3.org/2000/svg">
<path d="M15.959 22.498C14.5332 22.498 13.249 22.2637 12.1064 21.7949C10.9736 21.3262 9.99707 20.6523 9.17676 19.7734C8.35645 18.8848 7.71191 17.8203 7.24316 16.5801C6.77441 15.3301 6.50098 13.9287 6.42285 12.376H2.81934V22H0.182617V0.862305H2.81934V10.0029H6.45215C6.6084 8.02051 7.0918 6.30664 7.90234 4.86133C8.72266 3.41602 9.81152 2.30762 11.1689 1.53613C12.5361 0.754883 14.1328 0.364258 15.959 0.364258C17.4336 0.364258 18.7568 0.623047 19.9287 1.14062C21.1104 1.64844 22.1113 2.38574 22.9316 3.35254C23.7617 4.31934 24.3916 5.48145 24.8213 6.83887C25.2607 8.19629 25.4805 9.72461 25.4805 11.4238C25.4805 13.1133 25.2607 14.6416 24.8213 16.0088C24.3916 17.3662 23.7666 18.5283 22.9463 19.4951C22.126 20.4619 21.125 21.2041 19.9434 21.7217C18.7715 22.2393 17.4434 22.498 15.959 22.498ZM15.959 2.7959C14.5527 2.7959 13.3369 3.14746 12.3115 3.85059C11.2861 4.55371 10.4951 5.55469 9.93848 6.85352C9.38184 8.14258 9.10352 9.66602 9.10352 11.4238C9.10352 13.1719 9.37207 14.6953 9.90918 15.9941C10.4561 17.2832 11.2422 18.2842 12.2676 18.9971C13.293 19.71 14.5234 20.0664 15.959 20.0664C17.375 20.0664 18.5908 19.71 19.6064 18.9971C20.6221 18.2842 21.4033 17.2832 21.9502 15.9941C22.4971 14.6953 22.7705 13.1719 22.7705 11.4238C22.7705 9.66602 22.4971 8.14258 21.9502 6.85352C21.4033 5.55469 20.6221 4.55371 19.6064 3.85059C18.5908 3.14746 17.375 2.7959 15.959 2.7959Z" fill="#969696"/>
</svg>
