<svg width="17" height="20" viewBox="0 0 17 20" fill="none" xmlns="http://www.w3.org/2000/svg">
<path d="M6.14062 3.41602V10.1152H8.7793C10.0371 10.1152 10.985 9.81445 11.623 9.21289C12.2611 8.61133 12.5801 7.79102 12.5801 6.75195C12.5801 5.72201 12.2611 4.91081 11.623 4.31836C10.9941 3.7168 10.0508 3.41602 8.79297 3.41602H6.14062ZM9.6543 12.8359H6.14062V15.5156H11.4727V16.9785H6.14062V19.877H2.69531V16.9785H0.0429688V15.5156H2.69531V12.8359H0.0429688V11.3457H2.69531V0.599609H9.79102C10.7389 0.599609 11.6003 0.754557 12.375 1.06445C13.1497 1.36523 13.8151 1.78906 14.3711 2.33594C14.9271 2.88281 15.3509 3.52995 15.6426 4.27734C15.9434 5.02474 16.0938 5.84505 16.0938 6.73828C16.0938 7.6224 15.9388 8.43815 15.6289 9.18555C15.3281 9.92383 14.8906 10.5664 14.3164 11.1133C13.7513 11.6602 13.0723 12.084 12.2793 12.3848C11.4954 12.6855 10.6204 12.8359 9.6543 12.8359Z" fill="white"/>
</svg>
